<svg xmlns="http://www.w3.org/2000/svg" width="18" height="18" viewBox="0 0 18 18" fill="none">
<mask id="mask0_71_103" style="mask-type:alpha" maskUnits="userSpaceOnUse" x="0" y="0" width="18" height="18">
<rect width="18" height="18" fill="#D9D9D9"/>
</mask>
<g mask="url(#mask0_71_103)">
<path d="M8.70336 12.25H10.193V7.75H8.70336V12.25ZM9.44817 6.25C9.65921 6.25 9.8361 6.17812 9.97886 6.03438C10.1216 5.89062 10.193 5.7125 10.193 5.5C10.193 5.2875 10.1216 5.10938 9.97886 4.96562C9.8361 4.82187 9.65921 4.75 9.44817 4.75C9.23714 4.75 9.06025 4.82187 8.91749 4.96562C8.77473 5.10938 8.70336 5.2875 8.70336 5.5C8.70336 5.7125 8.77473 5.89062 8.91749 6.03438C9.06025 6.17812 9.23714 6.25 9.44817 6.25ZM9.44817 16C8.41784 16 7.44958 15.8031 6.54339 15.4094C5.63719 15.0156 4.84893 14.4813 4.17859 13.8063C3.50826 13.1313 2.97757 12.3375 2.58654 11.425C2.19551 10.5125 2 9.5375 2 8.5C2 7.4625 2.19551 6.4875 2.58654 5.575C2.97757 4.6625 3.50826 3.86875 4.17859 3.19375C4.84893 2.51875 5.63719 1.98438 6.54339 1.59063C7.44958 1.19687 8.41784 1 9.44817 1C10.4785 1 11.4468 1.19687 12.353 1.59063C13.2592 1.98438 14.0474 2.51875 14.7178 3.19375C15.3881 3.86875 15.9188 4.6625 16.3098 5.575C16.7008 6.4875 16.8963 7.4625 16.8963 8.5C16.8963 9.5375 16.7008 10.5125 16.3098 11.425C15.9188 12.3375 15.3881 13.1313 14.7178 13.8063C14.0474 14.4813 13.2592 15.0156 12.353 15.4094C11.4468 15.8031 10.4785 16 9.44817 16ZM9.44817 14.5C11.1116 14.5 12.5205 13.9187 13.675 12.7563C14.8295 11.5938 15.4067 10.175 15.4067 8.5C15.4067 6.825 14.8295 5.40625 13.675 4.24375C12.5205 3.08125 11.1116 2.5 9.44817 2.5C7.78475 2.5 6.3758 3.08125 5.22134 4.24375C4.06687 5.40625 3.48963 6.825 3.48963 8.5C3.48963 10.175 4.06687 11.5938 5.22134 12.7563C6.3758 13.9187 7.78475 14.5 9.44817 14.5Z" fill="white"/>
</g>
</svg>